<svg xmlns="http://www.w3.org/2000/svg" width="156" height="193" fill="none" viewBox="0 0 156 193"><g filter="url(#filter0_d)"><path fill="#CECECE" fill-rule="evenodd" d="M77.1423 82.5039C102.142 82.5039 130.642 70.0022 130.642 70.0022C130.642 70.0022 144.706 118.365 130.642 147.504C116.579 176.643 34.0874 173.091 23.6423 147.504C13.1972 121.916 23.6423 70.0023 23.6423 70.0023C23.6423 70.0023 52.1423 82.5039 77.1423 82.5039ZM62.6423 120.504C62.6423 116.504 62.6423 105.504 77.1423 105.504C91.6423 105.504 91.6422 116.004 91.6422 120.504C91.6422 125.004 86.1423 143.504 77.1423 143.504C68.1423 143.504 62.6423 124.504 62.6423 120.504Z" clip-rule="evenodd"/><path stroke="#BFBFBF" stroke-width="7" d="M23.6423 70.0023C23.6423 70.0023 13.1972 121.916 23.6423 147.504C34.0874 173.091 116.579 176.643 130.642 147.504C144.706 118.365 130.642 70.0022 130.642 70.0022C130.642 70.0022 102.142 82.5039 77.1423 82.5039C52.1423 82.5039 23.6423 70.0023 23.6423 70.0023ZM23.6423 70.0023C23.6423 48.1682 34.3423 13 77.1423 13C104.5 13 113.5 41 113.5 41M77.1423 105.504C62.6423 105.504 62.6423 116.504 62.6423 120.504C62.6423 124.504 68.1423 143.504 77.1423 143.504C86.1423 143.504 91.6422 125.004 91.6422 120.504C91.6422 116.004 91.6423 105.504 77.1423 105.504Z"/></g><defs><filter id="filter0_d" width="154.894" height="192.048" x=".499" y=".5" color-interpolation-filters="sRGB" filterUnits="userSpaceOnUse"><feFlood flood-opacity="0" result="BackgroundImageFix"/><feColorMatrix in="SourceAlpha" type="matrix" values="0 0 0 0 0 0 0 0 0 0 0 0 0 0 0 0 0 0 127 0"/><feOffset dy="6"/><feGaussianBlur stdDeviation="7.5"/><feColorMatrix type="matrix" values="0 0 0 0 0.291667 0 0 0 0 0.291667 0 0 0 0 0.291667 0 0 0 0.25 0"/><feBlend in2="BackgroundImageFix" mode="normal" result="effect1_dropShadow"/><feBlend in="SourceGraphic" in2="effect1_dropShadow" mode="normal" result="shape"/></filter></defs></svg>