<svg xmlns="http://www.w3.org/2000/svg" width="156" height="201" fill="none" viewBox="0 0 156 201"><g filter="url(#filter0_d)"><path fill="#CECECE" fill-rule="evenodd" d="M77.1423 90.0039C102.142 90.0039 130.642 77.5022 130.642 77.5022C130.642 77.5022 144.706 125.865 130.642 155.004C116.579 184.143 34.0874 180.591 23.6423 155.004C13.1972 129.416 23.6423 77.5023 23.6423 77.5023C23.6423 77.5023 52.1423 90.0039 77.1423 90.0039ZM62.6423 128.004C62.6423 124.004 62.6423 113.004 77.1423 113.004C91.6423 113.004 91.6422 123.504 91.6422 128.004C91.6422 132.504 86.1423 151.004 77.1423 151.004C68.1423 151.004 62.6423 132.004 62.6423 128.004Z" clip-rule="evenodd"/><path stroke="#BFBFBF" stroke-width="7" d="M23.6423 77.5023C23.6423 77.5023 13.1972 129.416 23.6423 155.004C34.0874 180.591 116.579 184.143 130.642 155.004C144.706 125.865 130.642 77.5022 130.642 77.5022M23.6423 77.5023C23.6423 -7.4978 130.642 -9.49789 130.642 77.5022M23.6423 77.5023C23.6423 77.5023 52.1423 90.0039 77.1423 90.0039C102.142 90.0039 130.642 77.5022 130.642 77.5022M77.1423 113.004C62.6423 113.004 62.6423 124.004 62.6423 128.004C62.6423 132.004 68.1423 151.004 77.1423 151.004C86.1423 151.004 91.6422 132.504 91.6422 128.004C91.6422 123.504 91.6423 113.004 77.1423 113.004Z"/></g><defs><filter id="filter0_d" width="154.894" height="199.548" x=".499" y=".5" color-interpolation-filters="sRGB" filterUnits="userSpaceOnUse"><feFlood flood-opacity="0" result="BackgroundImageFix"/><feColorMatrix in="SourceAlpha" type="matrix" values="0 0 0 0 0 0 0 0 0 0 0 0 0 0 0 0 0 0 127 0"/><feOffset dy="6"/><feGaussianBlur stdDeviation="7.5"/><feColorMatrix type="matrix" values="0 0 0 0 0.291667 0 0 0 0 0.291667 0 0 0 0 0.291667 0 0 0 0.25 0"/><feBlend in2="BackgroundImageFix" mode="normal" result="effect1_dropShadow"/><feBlend in="SourceGraphic" in2="effect1_dropShadow" mode="normal" result="shape"/></filter></defs></svg>